<svg width="0" height="0" class="hidden" xmlns="http://www.w3.org/2000/svg">
    <symbol xmlns="http://www.w3.org/2000/svg" viewBox="0 0 365.717 365" id="close">
        <g>
            <path d="M356.34 296.348L69.727 9.734c-12.5-12.5-32.766-12.5-45.247 0L9.375 24.816c-12.5 12.504-12.5 32.77 0 45.25L295.988 356.68c12.504 12.5 32.77 12.5 45.25 0l15.082-15.082c12.524-12.48 12.524-32.75.02-45.25zm0 0"></path>
            <path d="M295.988 9.734L9.375 296.348c-12.5 12.5-12.5 32.77 0 45.25l15.082 15.082c12.504 12.5 32.77 12.5 45.25 0L356.34 70.086c12.504-12.5 12.504-32.766 0-45.246L341.258 9.758c-12.5-12.524-32.766-12.524-45.27-.024zm0 0"></path>
        </g>
    </symbol>

    <symbol xmlns="http://www.w3.org/2000/svg" viewBox="0 0 512.002 512.002" id="pencil">
        <path d="M448.362 63.64L384.722 0l-74.246 74.247 53.034 137.886z" fill="#ff3e3a"></path>
        <path d="M448.362 63.64L331.69 180.313l106.066 21.213 74.246-74.246z" fill="#cc3245"></path>
        <path d="M34.216 406.504L0 512.001l112.284-69.856z" fill="#373e9f"></path>
        <path d="M.002 512.001l105.497-34.215-14.428-56.854z" fill="#340d66"></path>
        <path d="M188.374 366.055L61.095 323.629l-26.879 82.875 35.641 35.641z" fill="#ffe7b5"></path>
        <path d="M69.857 442.145l35.642 35.641 82.874-26.878-21.213-106.066z" fill="#ffd06a"></path>
        <path d="M124.734 387.269l63.639 63.639 249.383-249.382-63.64-63.639-166.169 81.316z" fill="#ff9a27"></path>
        <path d="M61.071 323.614L310.415 74.27l63.63 63.63-249.344 249.344z" fill="#ffb820"></path>
    </symbol>

</svg>